<svg width="24" height="24" viewBox="0 0 24 24" fill="none" xmlns="http://www.w3.org/2000/svg">
<mask id="mask0" mask-type="alpha" maskUnits="userSpaceOnUse" x="0" y="0" width="24" height="24">
<ellipse cx="12" cy="12" rx="12" ry="12" fill="#F7931A"/>
</mask>
<g mask="url(#mask0)">
<rect x="-4.66797" y="0.0952759" width="33.3333" height="23.8095" rx="2.38095" fill="white"/>
<mask id="mask1" mask-type="alpha" maskUnits="userSpaceOnUse" x="-5" y="0" width="34" height="24">
<rect x="-4.66797" y="0.0952759" width="33.3333" height="23.8095" rx="2.38095" fill="white"/>
</mask>
<g mask="url(#mask1)">
<rect x="-4.66797" y="0.0952759" width="33.3333" height="23.8095" fill="#F1361D"/>
<path fill-rule="evenodd" clip-rule="evenodd" d="M7.32422 3.7867L8.47713 3.98326L9.34182 4.77075L9.53837 3.61784L10.3259 2.75315L9.17296 2.5566L8.30827 1.7691L8.11171 2.92201L7.32422 3.7867ZM10.4124 7.81928L11.4115 7.21125L12.5807 7.23829L11.9727 6.23923L11.9997 5.07L11.0006 5.67803L9.83141 5.65099L10.4394 6.65005L10.4124 7.81928ZM9.05706 14.3465L8.07982 14.9891L8.06605 13.8196L7.42351 12.8424L8.59298 12.8286L9.57021 12.1861L9.58399 13.3555L10.2265 14.3328L9.05706 14.3465ZM9.90591 11.3232L11.0683 11.1944L12.1166 11.713L11.9877 10.5506L12.5064 9.50234L11.344 9.63118L10.2957 9.11253L10.4246 10.275L9.90591 11.3232Z" fill="#FFDC42"/>
<path fill-rule="evenodd" clip-rule="evenodd" d="M3.26972 9.88901L0.47074 11.8843L1.50347 8.60575L-1.25912 6.56035L2.17812 6.5294L3.26972 3.26996L4.36132 6.5294L7.79856 6.56035L5.03596 8.60575L6.06869 11.8843L3.26972 9.88901Z" fill="#FFDC42"/>
</g>
</g>
</svg>
