<svg width="24" height="24" viewBox="0 0 24 24" fill="none" xmlns="http://www.w3.org/2000/svg">
<mask id="mask0" mask-type="alpha" maskUnits="userSpaceOnUse" x="0" y="0" width="24" height="24">
<ellipse cx="12" cy="12" rx="12" ry="12" fill="#F7931A"/>
</mask>
<g mask="url(#mask0)">
<rect x="-5.33203" y="-0.380951" width="34.6667" height="24.7619" rx="2.47619" fill="white"/>
<mask id="mask1" mask-type="alpha" maskUnits="userSpaceOnUse" x="-6" y="-1" width="36" height="26">
<rect x="-5.33203" y="-0.380951" width="34.6667" height="24.7619" rx="2.47619" fill="white"/>
</mask>
<g mask="url(#mask1)">
<rect x="-5.33203" y="-0.380951" width="34.6667" height="24.7619" fill="#043CAE"/>
<path fill-rule="evenodd" clip-rule="evenodd" d="M10.8322 4.91331L11.9995 4.57142L13.1668 4.91331L12.8249 3.74602L13.1668 2.57874L11.9995 2.92063L10.8322 2.57874L11.1741 3.74602L10.8322 4.91331ZM10.8322 21.4215L11.9995 21.0796L13.1668 21.4215L12.8249 20.2542L13.1668 19.0869L11.9995 19.4288L10.8322 19.0869L11.1741 20.2542L10.8322 21.4215ZM20.2535 12.8255L19.0863 13.1674L19.4282 12.0001L19.0863 10.8328L20.2535 11.1747L21.4208 10.8328L21.0789 12.0001L21.4208 13.1674L20.2535 12.8255ZM2.57812 13.1674L3.74541 12.8255L4.9127 13.1674L4.57081 12.0001L4.9127 10.8328L3.74541 11.1747L2.57812 10.8328L2.92002 12.0001L2.57812 13.1674ZM19.1475 8.69862L17.9802 9.04051L18.3221 7.87322L17.9802 6.70593L19.1475 7.04782L20.3148 6.70593L19.9729 7.87322L20.3148 9.04051L19.1475 8.69862ZM3.68408 17.2943L4.85137 16.9524L6.01866 17.2943L5.67677 16.127L6.01866 14.9597L4.85137 15.3016L3.68408 14.9597L4.02597 16.127L3.68408 17.2943ZM16.1264 5.67742L14.9591 6.01931L15.301 4.85202L14.9591 3.68473L16.1264 4.02662L17.2936 3.68473L16.9517 4.85202L17.2936 6.01931L16.1264 5.67742ZM6.70532 20.3154L7.87261 19.9736L9.0399 20.3154L8.69801 19.1482L9.0399 17.9809L7.87261 18.3228L6.70532 17.9809L7.04721 19.1482L6.70532 20.3154ZM19.1475 16.9524L17.9802 17.2943L18.3221 16.127L17.9802 14.9597L19.1475 15.3016L20.3148 14.9597L19.9729 16.127L20.3148 17.2943L19.1475 16.9524ZM3.68408 9.04051L4.85137 8.69862L6.01866 9.04051L5.67677 7.87322L6.01866 6.70593L4.85137 7.04782L3.68408 6.70593L4.02597 7.87322L3.68408 9.04051ZM16.1264 19.9736L14.9591 20.3154L15.301 19.1482L14.9591 17.9809L16.1264 18.3228L17.2936 17.9809L16.9517 19.1482L17.2936 20.3154L16.1264 19.9736ZM6.70532 6.01931L7.87261 5.67742L9.0399 6.01931L8.69801 4.85202L9.0399 3.68473L7.87261 4.02662L6.70532 3.68473L7.04721 4.85202L6.70532 6.01931Z" fill="#FFD429"/>
</g>
</g>
</svg>
