<svg width="24" height="24" viewBox="0 0 24 24" fill="none" xmlns="http://www.w3.org/2000/svg">
<mask id="mask0" mask-type="alpha" maskUnits="userSpaceOnUse" x="0" y="0" width="24" height="24">
<ellipse cx="12" cy="12" rx="12" ry="12" fill="#F7931A"/>
</mask>
<g mask="url(#mask0)">
<path d="M26.8584 -0.380951H-2.85585C-4.22341 -0.380951 -5.33203 0.727675 -5.33203 2.09523V21.9047C-5.33203 23.2723 -4.22341 24.3809 -2.85585 24.3809H26.8584C28.2259 24.3809 29.3346 23.2723 29.3346 21.9047V2.09523C29.3346 0.727675 28.2259 -0.380951 26.8584 -0.380951Z" fill="white"/>
<circle cx="12" cy="12" r="11.5" stroke="#E8E8E9"/>
<mask id="mask1" mask-type="alpha" maskUnits="userSpaceOnUse" x="7" y="7" width="10" height="10">
<path d="M12.0023 16.8928C14.7046 16.8928 16.8952 14.7022 16.8952 11.9999C16.8952 9.2976 14.7046 7.10696 12.0023 7.10696C9.30001 7.10696 7.10938 9.2976 7.10938 11.9999C7.10938 14.7022 9.30001 16.8928 12.0023 16.8928Z" fill="white"/>
</mask>
<g mask="url(#mask1)">
<path d="M12.0023 16.8928C14.7046 16.8928 16.8952 14.7022 16.8952 11.9999C16.8952 9.2976 14.7046 7.10696 12.0023 7.10696C9.30001 7.10696 7.10938 9.2976 7.10938 11.9999C7.10938 14.7022 9.30001 16.8928 12.0023 16.8928Z" fill="#E01B41"/>
<path fill-rule="evenodd" clip-rule="evenodd" d="M7.1096 12.699C8.50758 14.0096 10.6046 14.7959 12.0025 12.699C13.4005 10.602 16.1965 10.602 16.8955 12.699C17.5944 14.7959 16.8955 16.8929 16.8955 16.8929H7.1096C7.1096 16.8929 5.71163 11.3884 7.1096 12.699Z" fill="#0E4B9C"/>
</g>
<path opacity="0.75" fill-rule="evenodd" clip-rule="evenodd" d="M17.3084 6.51407L17.9137 6.16458C18.0809 6.06807 18.2946 6.12534 18.3911 6.2925L20.1386 9.31922C20.2351 9.48638 20.1778 9.70012 20.0107 9.79663L19.4053 10.1461C19.2382 10.2426 19.0244 10.1854 18.9279 10.0182L17.1804 6.99149C17.0839 6.82433 17.1412 6.61058 17.3084 6.51407ZM19.1244 5.46559L19.7297 5.1161C19.8969 5.01959 20.1106 5.07686 20.2072 5.24402L21.9546 8.27073C22.0511 8.43789 21.9939 8.65164 21.8267 8.74815L21.2214 9.09764C21.0542 9.19416 20.8405 9.13688 20.7439 8.96972L18.9965 5.94301C18.9 5.77585 18.9572 5.5621 19.1244 5.46559ZM2.17481 15.2514L2.78015 14.9019C2.94731 14.8054 3.16106 14.8627 3.25757 15.0299L5.00504 18.0566C5.10155 18.2237 5.04428 18.4375 4.87712 18.534L4.27177 18.8835C4.10461 18.98 3.89087 18.9227 3.79436 18.7556L2.04688 15.7289C1.95037 15.5617 2.00765 15.3479 2.17481 15.2514ZM3.99083 14.203L4.59618 13.8535C4.76334 13.757 4.97708 13.8142 5.07359 13.9814L6.82107 17.0081C6.91758 17.1753 6.8603 17.389 6.69314 17.4855L6.0878 17.835C5.92064 17.9315 5.70689 17.8742 5.61038 17.7071L3.86291 14.6804C3.7664 14.5132 3.82367 14.2995 3.99083 14.203ZM19.4053 13.8535L20.0107 14.203C20.1778 14.2995 20.2351 14.5132 20.1386 14.6804L18.3911 17.7071C18.2946 17.8742 18.0809 17.9315 17.9137 17.835L17.3084 17.4855C17.1412 17.389 17.0839 17.1753 17.1804 17.0081L18.9279 13.9814C19.0244 13.8142 19.2382 13.757 19.4053 13.8535ZM21.2214 14.9019L21.8267 15.2514C21.9939 15.3479 22.0511 15.5617 21.9546 15.7289L20.2072 18.7556C20.1106 18.9227 19.8969 18.98 19.7297 18.8835L19.1244 18.534C18.9572 18.4375 18.9 18.2237 18.9965 18.0566L20.7439 15.0299C20.8405 14.8627 21.0542 14.8054 21.2214 14.9019ZM4.27177 5.1161L4.87712 5.46559C5.04428 5.5621 5.10155 5.77585 5.00504 5.94301L3.25757 8.96972C3.16106 9.13688 2.94731 9.19416 2.78015 9.09764L2.17481 8.74815C2.00765 8.65164 1.95037 8.43789 2.04688 8.27073L3.79436 5.24402C3.89087 5.07686 4.10461 5.01959 4.27177 5.1161ZM6.0878 6.16458L6.69314 6.51407C6.8603 6.61058 6.91758 6.82433 6.82107 6.99149L5.07359 10.0182C4.97708 10.1854 4.76334 10.2426 4.59618 10.1461L3.99083 9.79663C3.82367 9.70012 3.7664 9.48638 3.86291 9.31922L5.61038 6.2925C5.70689 6.12534 5.92064 6.06807 6.0878 6.16458Z" fill="#262626"/>
</g>
</svg>
