<svg width="24" height="24" viewBox="0 0 24 24" fill="none" xmlns="http://www.w3.org/2000/svg">
<mask id="mask0" mask-type="alpha" maskUnits="userSpaceOnUse" x="0" y="0" width="24" height="24">
<ellipse cx="12" cy="12" rx="12" ry="12" fill="#F7931A"/>
</mask>
<g mask="url(#mask0)">
<rect x="-5.33203" y="-0.38092" width="34.6667" height="24.7619" rx="2.47619" fill="white"/>
<mask id="mask1" mask-type="alpha" maskUnits="userSpaceOnUse" x="-6" y="-1" width="36" height="26">
<rect x="-5.33203" y="-0.38092" width="34.6667" height="24.7619" rx="2.47619" fill="white"/>
</mask>
<g mask="url(#mask1)">
<path fill-rule="evenodd" clip-rule="evenodd" d="M29.3346 -0.38092H-5.33203V1.26987H29.3346V-0.38092ZM29.3347 2.92088H-5.33199V4.57167H29.3347V2.92088ZM-5.33199 6.22223H29.3347V7.87302H-5.33199V6.22223ZM29.3347 9.52399H-5.33199V11.1748H29.3347V9.52399ZM-5.33199 12.8257H29.3347V14.4765H-5.33199V12.8257ZM29.3347 16.127H-5.33199V17.7778H29.3347V16.127ZM-5.33199 19.4287H29.3347V21.0795H-5.33199V19.4287ZM29.3347 22.7304H-5.33199V24.3812H29.3347V22.7304Z" fill="#D02F44"/>
<rect x="-5.33203" y="-0.38092" width="14.8571" height="11.5556" fill="#46467F"/>
<g filter="url(#filter0_d)">
<path fill-rule="evenodd" clip-rule="evenodd" d="M1.27278 2.09529C1.27278 2.55115 0.90324 2.92069 0.447386 2.92069C-0.00846815 2.92069 -0.378011 2.55115 -0.378011 2.09529C-0.378011 1.63944 -0.00846815 1.2699 0.447386 1.2699C0.90324 1.2699 1.27278 1.63944 1.27278 2.09529ZM-2.0286 2.09534C-2.0286 2.55119 -2.39814 2.92073 -2.85399 2.92073C-3.30985 2.92073 -3.67939 2.55119 -3.67939 2.09534C-3.67939 1.63948 -3.30985 1.26994 -2.85399 1.26994C-2.39814 1.26994 -2.0286 1.63948 -2.0286 2.09534ZM3.74874 2.92069C4.20459 2.92069 4.57413 2.55115 4.57413 2.09529C4.57413 1.63944 4.20459 1.2699 3.74874 1.2699C3.29288 1.2699 2.92334 1.63944 2.92334 2.09529C2.92334 2.55115 3.29288 2.92069 3.74874 2.92069ZM7.87581 2.09529C7.87581 2.55115 7.50627 2.92069 7.05041 2.92069C6.59456 2.92069 6.22502 2.55115 6.22502 2.09529C6.22502 1.63944 6.59456 1.2699 7.05041 1.2699C7.50627 1.2699 7.87581 1.63944 7.87581 2.09529ZM-1.20366 4.57133C-0.747802 4.57133 -0.378259 4.20178 -0.378259 3.74593C-0.378259 3.29007 -0.747802 2.92053 -1.20366 2.92053C-1.65951 2.92053 -2.02905 3.29007 -2.02905 3.74593C-2.02905 4.20178 -1.65951 4.57133 -1.20366 4.57133ZM2.9235 3.74593C2.9235 4.20178 2.55396 4.57133 2.0981 4.57133C1.64225 4.57133 1.27271 4.20178 1.27271 3.74593C1.27271 3.29007 1.64225 2.92053 2.0981 2.92053C2.55396 2.92053 2.9235 3.29007 2.9235 3.74593ZM5.39978 4.57133C5.85563 4.57133 6.22518 4.20178 6.22518 3.74593C6.22518 3.29007 5.85563 2.92053 5.39978 2.92053C4.94392 2.92053 4.57438 3.29007 4.57438 3.74593C4.57438 4.20178 4.94392 4.57133 5.39978 4.57133ZM7.87581 5.39697C7.87581 5.85282 7.50627 6.22237 7.05041 6.22237C6.59456 6.22237 6.22502 5.85282 6.22502 5.39697C6.22502 4.94112 6.59456 4.57157 7.05041 4.57157C7.50627 4.57157 7.87581 4.94112 7.87581 5.39697ZM3.74874 6.22237C4.20459 6.22237 4.57413 5.85282 4.57413 5.39697C4.57413 4.94112 4.20459 4.57157 3.74874 4.57157C3.29288 4.57157 2.92334 4.94112 2.92334 5.39697C2.92334 5.85282 3.29288 6.22237 3.74874 6.22237ZM1.27278 5.39697C1.27278 5.85282 0.90324 6.22237 0.447386 6.22237C-0.00846815 6.22237 -0.378011 5.85282 -0.378011 5.39697C-0.378011 4.94112 -0.00846815 4.57157 0.447386 4.57157C0.90324 4.57157 1.27278 4.94112 1.27278 5.39697ZM-2.85429 6.22237C-2.39844 6.22237 -2.02889 5.85282 -2.02889 5.39697C-2.02889 4.94112 -2.39844 4.57157 -2.85429 4.57157C-3.31014 4.57157 -3.67969 4.94112 -3.67969 5.39697C-3.67969 5.85282 -3.31014 6.22237 -2.85429 6.22237ZM-0.378259 7.04761C-0.378259 7.50346 -0.747802 7.873 -1.20366 7.873C-1.65951 7.873 -2.02905 7.50346 -2.02905 7.04761C-2.02905 6.59175 -1.65951 6.22221 -1.20366 6.22221C-0.747802 6.22221 -0.378259 6.59175 -0.378259 7.04761ZM2.0981 7.873C2.55396 7.873 2.9235 7.50346 2.9235 7.04761C2.9235 6.59175 2.55396 6.22221 2.0981 6.22221C1.64225 6.22221 1.27271 6.59175 1.27271 7.04761C1.27271 7.50346 1.64225 7.873 2.0981 7.873ZM6.22518 7.04761C6.22518 7.50346 5.85563 7.873 5.39978 7.873C4.94392 7.873 4.57438 7.50346 4.57438 7.04761C4.57438 6.59175 4.94392 6.22221 5.39978 6.22221C5.85563 6.22221 6.22518 6.59175 6.22518 7.04761ZM7.05041 9.52372C7.50627 9.52372 7.87581 9.15418 7.87581 8.69832C7.87581 8.24247 7.50627 7.87292 7.05041 7.87292C6.59456 7.87292 6.22502 8.24247 6.22502 8.69832C6.22502 9.15418 6.59456 9.52372 7.05041 9.52372ZM4.57413 8.69832C4.57413 9.15418 4.20459 9.52372 3.74874 9.52372C3.29288 9.52372 2.92334 9.15418 2.92334 8.69832C2.92334 8.24247 3.29288 7.87292 3.74874 7.87292C4.20459 7.87292 4.57413 8.24247 4.57413 8.69832ZM0.447386 9.52372C0.90324 9.52372 1.27278 9.15418 1.27278 8.69832C1.27278 8.24247 0.90324 7.87292 0.447386 7.87292C-0.00846815 7.87292 -0.378011 8.24247 -0.378011 8.69832C-0.378011 9.15418 -0.00846815 9.52372 0.447386 9.52372ZM-2.02889 8.69832C-2.02889 9.15418 -2.39844 9.52372 -2.85429 9.52372C-3.31014 9.52372 -3.67969 9.15418 -3.67969 8.69832C-3.67969 8.24247 -3.31014 7.87292 -2.85429 7.87292C-2.39844 7.87292 -2.02889 8.24247 -2.02889 8.69832Z" fill="url(#paint0_linear)"/>
</g>
</g>
</g>
<defs>
<filter id="filter0_d" x="-3.67969" y="1.2699" width="11.5555" height="9.49192" filterUnits="userSpaceOnUse" color-interpolation-filters="sRGB">
<feFlood flood-opacity="0" result="BackgroundImageFix"/>
<feColorMatrix in="SourceAlpha" type="matrix" values="0 0 0 0 0 0 0 0 0 0 0 0 0 0 0 0 0 0 127 0"/>
<feOffset dy="1.2381"/>
<feColorMatrix type="matrix" values="0 0 0 0 0 0 0 0 0 0 0 0 0 0 0 0 0 0 0.06 0"/>
<feBlend mode="normal" in2="BackgroundImageFix" result="effect1_dropShadow"/>
<feBlend mode="normal" in="SourceGraphic" in2="effect1_dropShadow" result="shape"/>
</filter>
<linearGradient id="paint0_linear" x1="-3.67969" y1="1.2699" x2="-3.67969" y2="9.52376" gradientUnits="userSpaceOnUse">
<stop stop-color="white"/>
<stop offset="1" stop-color="#F0F0F0"/>
</linearGradient>
</defs>
</svg>
